<svg xmlns="http://www.w3.org/2000/svg" xmlns:xlink="http://www.w3.org/1999/xlink" viewBox="0 0 26 26">
  <defs>
    <style>
      .cls-1 {
        clip-path: url(#clip-path);
      }

      .cls-2 {
        fill: #e9001e;
      }

      .cls-3 {
        fill: #ff4f19;
      }

      .cls-4 {
        fill: #7e5c62;
      }

      .cls-5 {
        fill: #78575d;
      }
    </style>
    <clipPath id="clip-path">
      <rect id="Rectangle_4" data-name="Rectangle 4" width="26" height="26" transform="translate(36.7 23.7)"/>
    </clipPath>
  </defs>
  <g id="Group_6" data-name="Group 6" transform="translate(-36.7 -23.7)">
    <g id="Group_5" data-name="Group 5" class="cls-1">
      <path id="Path_17" data-name="Path 17" class="cls-2" d="M50.1,39.8H40.2a.576.576,0,0,1-.6-.6V26.1a.576.576,0,0,1,.6-.6H50.6V39.3C50.7,39.6,50.5,39.8,50.1,39.8Z"/>
      <path id="Path_18" data-name="Path 18" class="cls-3" d="M60.7,38.2H49.1V23.9H60.7l-2.9,7.2Z"/>
      <path id="Path_19" data-name="Path 19" class="cls-4" d="M49.1,24l1.6,1.5H49.1Z"/>
      <path id="Path_20" data-name="Path 20" class="cls-5" d="M39.5,49.5h0a.789.789,0,0,1-.8-.8V25.2a.789.789,0,0,1,.8-.8h0a.789.789,0,0,1,.8.8V48.7A.86.86,0,0,1,39.5,49.5Z"/>
    </g>
  </g>
</svg>
